<svg xmlns="http://www.w3.org/2000/svg" viewBox="0 0 480 360" role="img" aria-label="Ilustrasi pertanyaan yang sering diajukan">
  <defs>
    <linearGradient id="pfq-bg" x1="0" y1="0" x2="1" y2="1">
      <stop offset="0" stop-color="#ecfeff"/>
      <stop offset="1" stop-color="#eef2ff"/>
    </linearGradient>
    <linearGradient id="pfq-q" x1="0" y1="0" x2="1" y2="1">
      <stop offset="0" stop-color="#6366f1"/>
      <stop offset="1" stop-color="#8b5cf6"/>
    </linearGradient>
    <linearGradient id="pfq-bulb" x1="0" y1="0" x2="1" y2="1">
      <stop offset="0" stop-color="#fbbf24"/>
      <stop offset="1" stop-color="#fb923c"/>
    </linearGradient>
  </defs>
  <rect width="480" height="360" fill="url(#pfq-bg)"/>
  <circle cx="392" cy="74" r="22" fill="#fb7185"/>
  <g transform="translate(130,84)">
    <circle cx="100" cy="100" r="92" fill="url(#pfq-q)"/>
    <circle cx="100" cy="100" r="70" fill="#ffffff" opacity="0.16"/>
    <path d="M84 52 Q116 44 128 68 Q136 90 112 100 Q96 108 96 122 L96 130" stroke="#ffffff" stroke-width="14" stroke-linecap="round" fill="none"/>
    <circle cx="96" cy="158" r="11" fill="#ffffff"/>
  </g>
  <g transform="translate(300,222)">
    <path d="M46 6 C70 6 88 24 88 48 C88 70 74 82 62 88 L52 106 L48 88 C26 82 10 66 10 48 C10 24 24 6 46 6 Z" fill="url(#pfq-bulb)"/>
    <path d="M30 40 Q46 32 62 42" stroke="#ffffff" stroke-width="6" stroke-linecap="round" fill="none" opacity="0.8"/>
  </g>
  <circle cx="96" cy="318" r="7" fill="#34d399"/>
  <circle cx="388" cy="318" r="6" fill="#fbbf24"/>
</svg>
